<?xml version="1.0" encoding="UTF-8"?>
<svg id="Layer_1" xmlns="http://www.w3.org/2000/svg" version="1.1" viewBox="0 0 16 16">
  <!-- Generator: Adobe Illustrator 29.4.0, SVG Export Plug-In . SVG Version: 2.1.0 Build 152)  -->
  <path d="M9.1,0s.6,0,.7,0c.6,0,1.5.5,2.1.8.2,0,.5.3.7.4.1,0,.2.1.3.2.4.2,1.2,1.2,1.4,1.6.6.9,1.1,2.3,1.4,3.3,0,.2.2.9.2,1.1,0,.1-.1.5-.1.7,0,.3,0,.6,0,.9,0,.9-.5,2.2-.8,3.1-.3.8-.6,1.6-1.3,2.1-1.2.8-2.7.8-4.1,1.2-.4.1-.9.3-1.3.3-.6.1-1.1,0-1.7,0-1.3-.3-2.5-.7-3.7-1.2-.7-.6-1.4-1.1-1.9-2-.5-1.1-.7-2.2-.9-3.4,0-.3,0-.6,0-1,0-1.3.6-2.5.9-3.8.2-.2.2-.4.3-.6,0-.1.3-.3.4-.5.2-.2.2-.5.4-.7.2-.3.6-.7.8-.9.2-.2.6-.5.8-.7.5-.4,1.3-.9,1.9-1.1.3,0,.5,0,.7,0,0,0,.2,0,.3-.1.3,0,1.1-.1,1.4,0,.4,0,.6,0,1,0,0,0,.3,0,.3,0,0,0,0,0,0,0h0ZM10.6,3c-.7-.3-1.4-.3-2.1-.4-.3,0-.6-.1-.9,0-.7,0-1.4.3-2,.4-.3,0-.6.3-.9.4-.3.1-.4.1-.7.3-.1.1-.2.3-.3.4s-.3.2-.4.4c0,0,0,.2,0,.3-.2.3-.3.7-.5,1-.1.2-.4.5-.4.8,0,.5,0,1,0,1.5,0,.7,0,1.2,0,2,0,.4.2.6.4.9.2.3.3.6.6.9,0,0,.1.1.2.2s.1.3.2.4c0,0,0,0,.1,0,0,0,0,.1.2.2.4.2,1.1.2,1.5.4.1,0,.2.1.3.2.4.2.6.2,1,.2.3,0,.4.1.7.1.3,0,.5-.2.7-.3.5-.2,1-.2,1.5-.5.4-.2.7-.7,1-1.1.2-.3.3-.4.4-.8,0,0,.2-.2.2-.3,0-.5,0-1.3,0-1.7,0-.3-.1-.3-.3-.5-.2-.3-.3-.5-.5-.7-.1-.1-.3-.2-.5-.3-.2-.2-.4-.4-.6-.5-.5-.2-1.3,0-1.8.1-.4.1-.7.4-.9.9-.1.3,0,.4,0,.7,0,0,0,.2,0,.3,0,.1.2.4.3.4.2.1.7.2,1,0,.2-.1.2-.3.2-.5,0-.4.2-.6.5-.9.2-.2.6-.2.9-.2.8.1,1.2.8,1,1.7,0,.2-.3,1.1-.4,1.2,0,0-.1,0-.2,0-.1.1-.3.5-.4.6s-.6.4-.8.4c-.7.3-1.8.2-2.5,0-1.2-.4-2-1.6-2.1-3,0-.6.4-1.9.6-2.5,0,0,.2-.4.2-.4,0,0,.1,0,.2-.1.5-.6,1.2-1.1,2-1.3.2,0,.6,0,.8-.1,0,0,0,0,0,0,0,0,.2,0,.3,0,.2,0,.4,0,.5,0,1.1.1,2,.5,2.9,1.2.2.2.6.4.8.5.2.2.4.6.5.8,0,.1.3.3.4.4,0,.1.3,1.1.3,1.3,0,.1-.1.2-.1.4,0,.2,0,.4,0,.7-.2,1-.8,2.8-1.5,3.5-.2.3-.8.6-.2.8.2,0,.3,0,.5-.1.3-.3,1-1.8,1.2-2.3.3-.8.6-2.3.6-3.3,0-1.3-.6-2.3-1.2-3.3-.6-1.1-1.4-1.3-2.4-1.8,0,0,0,0,0,0h0Z"/>
</svg>