<?xml version="1.0" encoding="UTF-8"?>
<svg id="Layer_1" data-name="Layer 1" xmlns="http://www.w3.org/2000/svg" viewBox="0 0 191.74 177.26">
  <path d="M117.89,2.07c.72.44,1.56.79,2.18,1.4.87.86,1.06,1.75,1.7,2.68.4.59.49.65.9,1.35.21.36,1.13,1.45,1.23,1.66.11.22.03.52.12.76.11.3.45.6.59.91.91,1.95,1.65,4.47,3.74,5.42.25.11.76.15.85.21s.08.38.28.53c.27.21.88.17,1.15.32.16.09.19.36.42.49.32.18.64.08.93.2.17.08.3.38.51.49.53.29,5.01.29,5.81.19.71-.09,1.13-.6,1.55-.71.56-.15,1.38,0,2.04-.22.35-.11.66-.47.96-.54,1.45-.32,2.27-.05,3.92-.59.66-.21,2.01-.27,2.7-.19.56.07.82.51,1.28.6.71.14,1.65-.06,2.38.25s1.98,1.49,2.23,2.28c.12.38.12,4.03,0,4.4-.02.07-.65,1.25-.69,1.32-.19.28-.49.24-.6.34-.31.31-1.44,1.86-1.65,2.3-.11.21-.11.56-.2.68-.1.13-.36.06-.44.21-.3.53.13,1.53-.42,2.01-.13.11-.33-.1-.42.38-.1.54.02,1.13-.06,1.7-.18,1.27-.97,1.51-.69,3.26.12.74.53.8.66,1.22s-.04.93.14,1.36c.07.17.32.21.45.44.16.28.18.77.34,1.01.11.17.47.23.57.47s.02.52.12.75c.04.08,1.09,1.07,1.26,1.25.2.2,1.1,1.28,1.19,1.32.19.1.49.06.72.16.32.14.34.45.49.54.26.16.88.19,1.19.37.16.09.17.29.38.4.44.23,1.81.66,2.18.96.17.14.15.42.31.57,1.03,1.01,1.09,1.34,1.68,2.7.87,2,1.71,3.82,1.01,6.14-.28.94-.3.9-.44,1.94s-.32.9-.68,1.58c-.58,1.1-1.38,2.2-.74,3.47.12.23.43.28.6.54.13.19.16.53.22.59.08.07.31.02.41.15.1.14.03.47.18.58s.48,0,.64.11c.12.08.08.31.15.41.3.37,1.9.78,1.6,1.79l.48.02c.05.81.39,1.02.75,1.57.7,1.06,1.42,2.23,2.34,3.05,1.6,1.43,1.64,2.01,2.54,3.85.13.26.38.38.49.63.22.49.07,1,.19,1.44.15.56,1.31,2.32,1.45,2.94.08.36.07,3.58-.04,3.8-.09.18-.42.27-.57.43-.19.22-.84,1.14-1,1.26-.25.19-1.37.21-1.35.6.02.62.47.39.64.74.15.31.01.78.15.98.08.12.38.11.51.24.15.15.13.44.26.62.14.19.52.28.62.51.13.29,0,.61.12.88.1.21.58.3.73.66.14.32-.07.55.05.81.13.28.52.35.6.53.11.23.04.59.12.88.12.44.59.71.67.96.14.46.06,1.24.16,1.7.02.1.43.28.52.52.21.58.13,1.33.29,1.84.09.3.43.45.57.81.18.48.04.96.15,1.35.13.46,1.08,2.09,1.32,2.69s.06,1.28.18,1.82c.07.34.42.52.54.84.2.51.06,1.21.22,1.67.08.23.36.37.5.63.26.5.14.92.28,1.35.1.31.53.59.64.99.13.51,0,1.03.09,1.54.07.43.46.97.56,1.32.36,1.23-.04,2.55.35,3.79.14.44.48.8.55,1.33.15,1.1-.07,2.45.15,3.62.13.69.54,1.29.62,2.02.27,2.69-.11,5.48.13,8.15.08.86.51,1.56.62,2.39.22,1.56.29,4.99-.03,6.49-.09.43-.54.72-.6,1.03-.13.68,0,1.73-.16,2.48-.08.37-.42.65-.54.97-.18.49-.1,1.19-.27,1.6-.07.17-.32.21-.45.44-.2.35-.15.79-.29,1.09-.35.74-1,1.72-1.51,2.38-.17.23-.49.42-.61.64-.15.27-.15.72-.26.87-.1.13-.33.07-.45.21-.04.05-.74,1.01-.77,1.07-.13.25-.14.81-.28.98-.17.19-.49.07-.55.14-.05.05.04.35-.14.55-.14.16-.59.2-.73.34-.12.12-.07.36-.24.48-.23.15-.58.16-.91.44-.91.77-1.77,1.93-2.78,2.74-.17.13-.47.11-.59.23-.08.08-.02.31-.23.46-.24.17-.71.14-.97.28-.2.11-.24.35-.41.46-.33.22-1.04.29-1.3.46-.13.09-.14.31-.35.41-.33.15-.95.06-1.29.22-.24.11-.34.47-.78.6-.5.15-.99.02-1.49.14-.47.11-.82.58-1.21.67-.62.14-1.29-.07-2,.13-.46.13-.79.55-1.14.63s-1.15-.03-1.6.02c-1.87.2-3.76.47-5.64.5-1.31.02-2.2-.42-3.39-.5-1.46-.1-3.05.13-4.5-.02-.77-.08-1.4-.44-2.05-.58-1.16-.25-2.64-.41-3.89-.63-1.36-.24-3.47-.25-4.87-.16s-2.31.52-3.63.63c-.68.06-1.23.57-1.96.8-.61.19-1.04-.08-1.24.83l-.12-.25h-.25c.02.41-.46.29-.75.45-1.01.55-1.95,1.24-2.9,1.86-.24.16-.74.12-1.04.34-.21.15-.29.47-.45.55-.21.1-.52.05-.83.18-.35.14-.44.6-.68.71s-.64-.13-1.09.15c-.32.2-.22.44-.37.54-.25.15-.8.06-1.08.15-.34.11-.39.51-.5.57-.15.09-.71.08-1,.19-1.01.37-2.01.88-2.97,1.29-.52.22-1.15.19-1.64.37-.4.14-.74.49-1.25.64-.21.06-.39-.07-.48-.05-.04,0-.32.48-.47.58-.67.41-.94.06-1.44.19-.06.02-.86.53-.96.58-.48.25-2.54.09-3.43.31-1.04.25-1.88.34-2.82.55-.67.15-1.08.57-1.68.72s-1.36.08-1.92.21c-.93.22-1.44.67-2.66.72-1.72.08-2.25-.35-3.67-.72-.44-.11-1.07-.07-1.56-.19-.56-.14-.76-.48-1.25-.63-.58-.17-1.06-.05-1.56-.19-.41-.12-.62-.39-.99-.52-.56-.19-1.13-.09-1.71-.3-.98-.35-.91-.38-2.03-.6-.75-.15-1.3-.59-1.8-.71-1.75-.4-2.93-.68-4.54-1.48s-3.6-1.14-5.27-1.75c-.32-.12-.6-.46-.97-.54-.68-.14-1.64-.05-2.33-.18-.46-.09-1.02-.46-1.44-.56-2.09-.51-9-.54-11.11-.02-2.58.64-5.02,1.51-7.31,2.72-.18.09-1.73.72-1.88.75-.96.2-1.33-.4-1.85-.35-.24.03-.63.4-1.04.47-1.25.21-1.09-.08-2.3.58-.72.4-6.99.39-8.21.33-.44-.02-1.49-.08-1.85-.16-.39-.09-.53-.47-.81-.57-.39-.14-1.05-.07-1.45-.18-.42-.12-.57-.51-.99-.64-.48-.15-.99,0-1.44-.2-.27-.11-.28-.36-.62-.5-.79-.32-.78-.19-1.59-.68-.39-.23-.86-.19-1.25-.36-1.63-.72-5.66-4.13-6.81-5.48-.56-.66-2.34-3.15-2.43-3.84-.09-.75.09-1.73-.17-2.47-.08-.24-.38-.37-.5-.63-.33-.72-.12-1.63-.23-2.4-.22-1.5-.68-2.42-.48-4.13.07-.57.38-1.11.48-1.65.12-.7.02-1.72.16-2.35.08-.34.41-.52.54-.84.21-.53.1-1.17.21-1.67.08-.36.51-.62.64-1.11.11-.44.02-.88.14-1.24.11-.33.48-.38.61-.65.13-.29.05-.64.18-.94.14-.33.49-.37.59-.54.14-.24.06-.69.26-.99s1.13-1.06,1.29-1.35.09-.67.21-.92c.1-.19.42-.25.55-.45.32-.5.72-1.65,1.03-2.23.37-.68.77-1.31,1.16-1.97.15-.25.19-.75.31-.91.1-.13.36-.07.5-.28.16-.22.11-.63.23-.9s.46-.44.6-.78c.11-.29.09-.9.22-1.1.08-.13.47-.18.57-.5-.04-2.07.12-4.16.1-6.22-.01-1.35.08-3.54-.09-4.78-.03-.18-.8-2.73-.87-2.86-.21-.39-1.15-1.48-1.5-1.92-1.14-1.42-2.27-2.13-3.64-3.26-1.22-1.02-2.25-1.46-3.06-3.08-.18-.35-.12-.8-.27-1.11-.11-.23-.45-.34-.53-.72-.12-.56,0-1.32-.18-1.95-.31-1.08-.57-1.17-.47-2.54.03-.33.59-2.98.69-3.2.28-.62.99-1.63,1.29-2.22.17-.32.11-.82.27-1.08.08-.14.35-.15.49-.42s.09-.69.21-.92c.14-.26.46-.17.57-.34.13-.21.11-.8.24-.98s.39-.24.51-.4c1.37-1.75,2.58-3.69,4.27-5.23,1.2-1.09,1.91-1.92,2.94-3.07.17-.19,1.24-1.21,1.28-1.29.08-.15,0-.53.12-.82.14-.33.57-.4.64-.61.1-.29-.05-.6.16-.97s1.07-1.19,1.35-1.66.49-.82.76-1.25c.19-.3.07-.65.2-.93.11-.24.46-.29.56-.48.22-.41.07-1.24.31-1.79.18-.4.48-.29.55-.82.22-1.51-.61-.99-1.63-1.24-.46-.11-.87-.46-1.34-.54-.66-.11-1.5-.01-2.17-.21-.08-.02-1.39-.7-1.49-.76-1.25-.77-1.81-2.58-1.64-4,.06-.52.33-.76.44-1.19.42-1.61.25-2.02,1.53-3.17.29-.27.87-1.17,1.15-1.42.17-.15.5-.18.58-.3.09-.14.02-.4.08-.48.04-.05.48-.08.65-.17.32-.17,1.18-.6,1.39-.74.29-.19.27-.38.88-.75.34-.21,2.09-1.44,2.31-1.65.41-.39.19-.31.82-.74,1.09-.74,2.02-1.49,3.13-2.14.49-.28,1.81-1.58,2.08-2.06.58-1.05,1.16-1.66,1.89-2.62,1.75-2.29,4.05-4.48,6.02-6.65.89-.98,1.55-2.08,2.38-3.01,1.09-1.23,2.01-2.67,3.07-3.83.16-.17.44-.25.56-.44.1-.16.11-.49.16-.53.08-.06.34.01.48-.08.15-.1.21-.57.37-.73.31-.31.92-.7,1.2-1.09.21-.29.16-.68.33-.93.17-.27.47-.24.59-.35.14-.14.09-.45.18-.57.08-.1.33-.08.44-.18,1.65-1.62,3.15-3.68,4.8-5.17.12-.11.39-.1.57-.31.15-.17.18-.49.3-.58.13-.09.37-.02.47-.09.08-.05.12-.4.27-.55.17-.17.44-.17.57-.31.17-.18.15-.55.21-.61.08-.07.34.01.48-.08.12-.08.12-.35.26-.5.69-.77,2.04-1.25,2.82-1.82.21-.16.24-.54.33-.61s.52-.08.76-.18c.27-.12.55-.51.63-.55,2.05-1.02,4.19-2.16,6.29-3.06,1.08-.46,1.99-.63,3.08-.93.39-.11.64-.49.98-.62.58-.22,1.77,0,2.45-.08,1.84-.24,3.07-.81,5.13-.61.51.05,2.25.65,2.5.59.28-.07.37-.47.56-.61.28-.2.74-.19.98-.37.11-.09.16-.31.25-.38.87-.6,1.65-1,2.5-1.64.79-.59,1.41-.64,1.98-1,.14-.09.2-.37.4-.51.76-.54,2.37-1.4,3.21-1.68.32-.11.5-.49.78-.6.33-.14.65-.05.98-.15s.63-.5,1.02-.61c.34-.1.66-.05.99-.14.39-.11.65-.5,1.02-.61.48-.15,1.04-.03,1.52-.24.31-.14.38-.4.84-.54s1.14-.08,1.55-.21c.23-.07.51-.43.94-.56.64-.2,1.24-.07,1.82-.19.41-.08.74-.48,1.29-.59,1.34-.25,3.49-.16,4.84.02.69.1,1.35.5,1.92.58.79.11,2.35-.11,3.02.3ZM93.99,89.17v3.01c-.67.17-3.46.47-3.89.18-.09-.06-.08-.28-.21-.31-.46-.12-1.34.12-1.83,0-.07-.02-.17-.38-.47-.25l.13-.25c-.29-.02-.6.06-.88-.06-.19-.09-.59-.78-.72-.81-.34-.07-.74.06-1.07-.01-.1-.02-.33-.44-.37-.46-.37-.13-1.02-.12-1.38-.31-.57-.3-.66-.97-1.59-.75l-.02-.35c-.52.11-.46-.21-.62-.32-.15-.1-.37-.15-.46-.23-.23-.22-.17-.71-.66-.59l.12-.25c-.37.07-.45-.25-.68-.45-1.08-1-1.54-1.67-2.12-3.03-.03-.07-.48-.34-.52-.41-.16-.34-.14-.88-.36-1.21-.12-.18-.71-.51-.71-.85v-1.94c-.84.24-.88,1.74-.75,2.44.08.4.57.56.69.82.1.24.02.48.1.72.01.03.42.3.5.42.44.67.37,1.26.32,2.03-.04.16-.15.18-.3.21-.32.06-3,.03-3.2-.06s-.28-.47-.5-.63c-.26-.18-.64-.2-.97-.4-.78-.47-1.92-1.49-2.75-2.09-.35-.25-1.37-1.86-1.67-2.03-.15-.09-.34-.06-.5-.06l.13-.25-.82-.12-1.93-2.08-1.3.07c-.5.91-1.14.58-1.84.82-.89.3-2.38,1.99-3.07,2.7-1.54,1.58-2.69,2.56-3.65,4.5-.15.3-.91.91-.93.98-.05.26.06.58-.02.83-.07.23-.5.26-.58.54-.09.32.05.67-.09,1.04-.1.29-.52.54-.46.99l-.36.09c.09.76,0,1.16-.26,1.83-.33.82-.2,1.12-.36,1.9-.02.07-.72.94-.75,1.05-.09.39.08.86-.06,1.3-.11.36-.58.55-.67.96-.11.49.08,1.15-.03,1.58-.02.09-.22.08-.25.17-.05.24.02.47-.07.79-.08.26-.41.4-.43.47-.28,1.32.11,3.96,0,5.5-.02.27-.09.53-.14.8h-1.49s.13-.24.13-.24h-.63c.15-.53-.53-.89-.74-1.21-.54-.83-1.04-1.94-1.41-2.83-.05-.11-.21-.11-.23-.19-.12-.55.24-.79-.31-1.24-.08-.07-.27-.03-.3-.06-.08-.09.02-.68-.03-.92-.05-.25-.33-.5-.26-.85-1.13-.65-.37-1.6-.64-2.52-.09-.29-.7-.61-.83-1.19-.13-.82.21-3.26-.22-3.78-.04-.04-.56-.57-.6-.59-.27-.19-3.36-.26-3.76-.16-.03,0-.34.2-.55.29-2,.87-3.45,2.68-4.81,4.41-.09.11-.03.31-.17.45-.2.2-.51.22-.55.27-.13.14-.09.95-.22,1.22-.12.25-.51.35-.54.4-.02.04.1.2.04.35-.06.13-.26.18-.31.45-.11.53.1,1.32,0,1.87-.07.37-.55.77-.62,1.14-.1.53-.11,4.62,0,5.11.02.07.59.63.6.67.13.37-.07,1.05.02,1.46.02.1.19.1.24.18.31.51.52,1.01.8,1.44.67,1.07,1.63,1.96,2.56,2.57.31.2.44.64.49.67.16.1.48.06.67.19s.27.56.6.66c.39.11.92-.03,1.35.03.62.1,1.01.69,1.51.75.39.05,2.47.04,2.67-.16.09-.09.04-.41.28-.53.32-.17.84.06,1.13-.12.13-.08.21-.38.37-.51.74-.61,1.67-1.38,2.22-2.22.05-.08-.04-.26.04-.38s.26-.07.26-.09v-1.88h1.88c.07.41-.1,1.06,0,1.41.02.09.45.29.56.6.15.42,0,.8.07,1.16.02.07.71.96.79,1.24.13.41.01.81.11,1.15.07.24.41.31.47.65.05.27-.06.62,0,.85.03.13.3.12.36.29.12.33-.07.89.02,1.21.03.1.44.27.58.46.2.27.59.8.74,1.02.23.35.05,1.22.68,1.13-.17,1.01.3,1.09.89,1.71.09.1.11.35.25.48.17.17.47.17.57.31s.05.41.18.58.43.12.53.26c.13.19,0,.48.02.52.03.05.24.08.33.22.23.36.48,1.16.9,1.05-.26.33.13.25.32.49,1.02,1.27,2.13,2.67,3.18,3.74.27.28.5.61.85.82-.18.38.02.13.24.27.43.27,1.18,1.36,1.56,1.76.25.26.37.37.53.55.35.4,1.02.38,1.18.57.59.69.91.84,1.54,1.4.18.16.49.65.52.67.18.1.49-.06.8.14.05.03.48.44.63.56.3.25.53.67.9.85l-.09.22,1.24.02.16.47c.65-.19,1.12.52,1.62.83.14.08.38.02.47.09.05.04.04.28.23.46.32.31.78.21,1.11.4.22.12.25.36.37.45.73.51,1.69.83,2.45,1.11.2.07.55.55.59.56.37.07.7-.07,1.13.1.36.14.86.84.99.89.27.09.67-.02.98.03.41.07.54.45.67.49.32.1.86,0,1.18.16s.44.53.85.48l-.13.25c.38,0,.76-.04,1.13.06.49.13.81.75,1.38.57l-.13.25c.14.1,1.56-.08,1.92,0,.06.01.93.5,1.02.51.38.05,1.91.05,2.26-.01s.38-.35.57-.43c.23-.11,2.81-.12,3.2-.07.24.03.12.24.36.27.75.09,1.73-.06,2.52-.02,2.64.15,6.35.59,8.91.27.24-.03.12-.24.36-.27.31-.04,1.34-.04,1.64.01.72.13.64,1.25.57,1.82-.11.93-.44.57-1.04.69-.06.01-.76.65-1.05.72-.54.13-1.41.04-1.96.15-.05,0-.42.55-.78.62-.6.11-1.54-.14-2.1.03-.35.1-.61.74-.81.85-.49.26-1.23.01-1.7.15-.23.07-.33.38-.55.45-.65.2-1.68-.28-2.13.31-.03.04.08.17.06.19-.66.7-1.45.23-2.14.43-.35.1-.52.64-.62.7-.3.17-1.01,0-1.33.64-.28.54-.42,2.4-.25,2.94.03.09.89.96,1.11.84l-.13.37c.44-.07,1.3.36,1.13.88h1.38s-.13.25-.13.25c.3-.12.37.21.48.24.26.08.63.06.93.15.09.03.26.44.73.24l-.13.25c.29.04.65-.06.92,0,.1.02.08.22.17.25.29.07,3.32.3,3.62.26.24-.03.12-.24.36-.27.53-.07,1.19.08,1.74,0,.67-1.17,1.63-.68,2.63-.88.11-.02.33-.47.43-.49.3-.06.69.06.95,0,.12-.03.12-.25.22-.3.66-.36,1.29-.52,1.85-.95,1.04-.81,1.28-1,2.09-2.02.1-.13.32-.17.41-.28.48-.62.23-1.66.3-2.41l-.5-.53v-2.61c-.03-.27-.3-.26-.42-.47-.38-.63-.47-3.08-.34-3.8s1.25-.56,1.79-.57l.68-.74c.56-.1,1.33-.04,1.85-.14.33-.06.52-.4.79-.47.36-.09.84.05,1.09-.02.14-.04.05-.33.2-.45.05-.03.94-.44,1.04-.47.46-.15.88-.09,1.35-.1-.22-.7,1.12-.63,1.62-.95.14-.09.16-.35.34-.41.25-.08.57.03.83-.02.07-.01.73-.86.81-.87.32-.06.71.03,1.04,0l-.12-.37c.37.21.32-.2.5-.31s.5-.04.75-.13c.36-.13.64-.62.89-.74s.73-.08.92-.19c.14-.08.04-.31.09-.36.04-.03.8-.23.95-.31.38-.21.66-.83,1.42-.59l-.11-.23c.45-.08.53-.54.79-.77.5-.44,1.76-.93,2.29-1.54.75-.86.94-.83,1.7-1.46.14-.11.1-.37.26-.52.19-.17.61-.19.89-.37s1.72-1.63,1.9-1.92c.11-.19.03-.48.23-.71.15-.18.45-.19.56-.31.16-.18.08-.47.25-.63.39-.4.17.07.55-.65.1-.19.5-.27.55-.33.26-.27.74-.97,1-1.22.09-.09.71-.4.75-.53.09-.28-.03-.87.06-.96.03-.03.39-.06.6-.36.14-.2.25-.59.34-.67s.33-.06.4-.13c.04-.04.02-.84.17-1.08.08-.13.49-.19.6-.38.11-.17.01-.4.11-.6.21-.47,1.19-1.51,1.4-1.99.13-.3.12-.59.24-.87.05-.11.73-.6.75-.68.06-.29-.07-.68.14-.97.16-.22.44-.17.48-.21.07-.08-.03-.37.06-.58.02-.04.4-.59.48-.71.12-.17.43-.26.48-.41.07-.21-.13-.47-.1-.53.02-.04.47-.21.58-.61.14-.54.06-1.39.31-1.95.08-.19.57-.46.59-.56.13-.66-.05-1.73,0-2.48.1-1.23.87-2.08.62-3.32l1.58.12c.16.23.01,2.21.05,2.71.05.69.41,1.26,1.1,1.35.46.7,1.27.94,1.7,1.68l2.98.04-.13-.25c.47.13.44-.42.76-.56.27-.13.68-.07,1.03-.2.15-.06.35-.47.44-.49.23-.04.49.05.7,0,.08-.02.64-.75.81-.88.81-.59,1.04-.85,1.79-1.57.31-.29,2.66-2.43,2.72-2.6.11-.29-.03-.61.06-.89.07-.22.45-.26.55-.46.15-.3-.02-.68.12-1,.06-.14.8-.9.81-.97.09-.42-.07-.98.03-1.45.09-.44.52-.76.59-.94.25-.61.22-6.52-.03-7.14-.03-.08-.41-.24-.48-.46-.15-.48-.06-1.23-.23-1.62-.06-.14-.3-.1-.43-.22-.48-.43-.17-.79-.31-1.19-.11-.35-.58-.65-.63-.79-.09-.23-.06-.7-.17-.87-.08-.12-.43-.18-.56-.32-.23-.25-.64-.98-.97-1.22-.3-.22-1.28-.35-1.07-.99-.69-.07-1.52.09-2.19,0-.41-.06-.62-.37-.92-.46-.68-.21-2.99-.25-3.72-.15-.49.07-.8.47-1.33.37l.13.25c-.56-.03-1.03-.03-1.5.32-.67.51-.45.3-1.13.62-.24.11-1.16,1-1.35,1.18s-1.52,1.37-1.54,1.48c-.07.33.06.71-.04,1.07-.07.27-.41.5-.52.73-.4.87-.76,1.68-1.15,2.49-.16.33-.49.53-.45.99l-.35.02c.39.5-.46.79-.5.97-.16.75-.38,1.81-.95,2.41-.13.14-.35.1-.4.15-.09.1-.1.83-.22,1.09-.14.29-.57.42-.65.54-.13.21-.06.73-.19.93-.07.11-.59.34-.68.66h-1.42v-3.33c0-.11.29-.48.25-.69l.37.13c-.32-.55.23-.7.26-.93.26-2.19-.22-4.91,0-7.16-.29-.4-.69-.65-.83-1.18-.2-.8.28-1.55-.7-1.97l.14-.54h-.38c.05-.38.05-1.02-.08-1.35-.08-.18-.35-.21-.45-.43-.11-.23-.08-.5-.22-.79-.2-.44-1.12-1-1.31-1.32-.69-1.12-.59-1.21-1.58-2.18-.14-.14-.66-.87-.77-.92-.21-.08-.43.01-.64-.05-.07-.02-.85-.7-1.19-.84-.74-.31-2.04-.6-2.82-.37-.2.06-.37.38-.63.5s-.8.14-.94.25c-.09.08-.12.38-.28.54-.78.82-1.55,1.55-2.32,2.32-.57.57-.73.66-1.35,1.03-.29.17-.67.58-.96.67-.49.14-1.03-.04-1.42.06-.15.04-.2.54-.66.63-.34.06-.75-.04-1.12,0-.19.03-.35.21-.63.25-.4.06-.91-.05-1.32,0l.13-.25-.39-.07c.06-.44-.06-.96,0-1.38.03-.23.23-.16.26-.27.13-.55.18-3.57.13-4.24-.01-.15-.05-.67-.25-.69-.04.45-.45.72-.59,1.1s-.04.87-.23,1.27c-.39.78-1.22,1.34-1.55,1.99-.24.47-.43,1-.76,1.47-.26.38-.48.16-.5.19-.04.07.02.32-.07.49-.14.26-.62.51-.73.76-.16.35.13.44-.38.95-.68.69-.72,1.19-1.25,1.89s-2.37,2.11-3.09,2.61c-.17.11-.45.11-.62.26-.18.16-.22.51-.27.54-.08.05-1.46.05-1.86.35-.11.08-.25.43-.31.43h-5.2c-.16-1.13-.28-2.8.06-3.89.2-.68.94-.95.71-1.87h.37s-.12-.25-.12-.25c.17.18.61-.43.62-.47.08-.36-.07-.84,0-1.2.03-.12.63-.42.63-.65v-5.65c-.88-.71-.48-1.4-.64-2.22-.02-.11-.64-.5-.75-.65-.34-.46-.58-.89-.94-1.32-.22-.27-.34-.05-.71-.67s-.61.18-.74.33c-.75.86-1.07,1.73-1.84,2.46-.23.22-1.09.76-1.25.92-.09.09-.06.35-.21.48-.22.2-1.48.16-1.75,0-.68-.43-.15-3.92-.34-4.81-.01-.05-.56-.66-.67-.85-.17-.29-.21-1.15-.7-.78-.16.35-1.08.79-1.22,1.06-.03.06.11.22.03.35-.05.08-.26.12-.36.28-.19.3-.19.65-.34.9s-.56.37-.6.53c-.05.17.12.35.12.47,0,.08-.23.06-.25.15-.08.3.06.63-.07,1.04s-.79.91-.8.98c-.12.59.08,1.46-.01,2.1-.08.52-.55.81-.62,1.14-.2,1.05.15,2.64-.01,3.76.74.59.71,1.09,1.03,1.86.11.27.41.49.46.67.08.29-.04.6.06.88.17.45,1.77,1.97,2.1,2.48.3.45.11,1.07.88.94Z"/>
  <g>
    <path d="M55.38,93.04l-.08-.99,1.78-.98c.76.14,3.72-.65,3.91.43-.18.67-.89.56-1.37.74-1.31.49-1.35.4-2.7.56-.52.06-.99.39-1.55.24Z"/>
    <path d="M88.43,115.4c1.03-.31,2.28,1.1,1.73,1.98-.09.14-.4.19-.56.32-.32.27-.39.72-1.05.53-.28-.08-.78-1.06-.82-1.32-.05-.37.28-1.39.69-1.51Z"/>
    <path d="M104.86,115.53c1.61-.48,1.91,2.23-.02,1.85-.73-.14-.72-1.63.02-1.85Z"/>
    <path d="M138.21,98.11c.18.21.16.41.03.64-.04.07-.84.84-.9.87-.52.25-1.82.01-2.48.34.4.56.25,1.86.44,2.26.21.43.94.12,1.37.39.05.03.85.82.88.87.31.46.25,1.5-.37,1.62-1.17.23-1.4-.88-2.45-.55-.15.45-.1.92-.24,1.36-.23.7-.48,1-.72,1.91-.07.27-.26.41-.27.67.28.01.76.16.93.38.05.07.77,1.38.79,1.46.18.65.09.85-.53.91-1.24.12-.86-.14-1.39-.74-.13-.15-.34-.21-.49-.39-.19-.21-.08-.6-.44-.5-.42.77-1.33,1.38-1.96,2-.15.15-.13.38-.21.47-.11.13-1.47.72-1.47.98.82.48.83,3.41-.51,2.51-.7-.47-.85-1.13-1.18-1.82-.53.77-1.4.48-2.07.68-.31.09-.58.5-.94.56-.67.13-2.56-.17-3.04.16-.54.38.14,3.28-1.23,2.11-.77-.66-.7-1.78-.32-2.63-.52-.48-1.34-.81-1.87-1.21-.33-.25-.84-.9-1.21-1.17-.46-.34-.58-.25-1.05-.02.48.28-.02,1.26-.34,1.35-1.43.44-1.64-.57-1.37-1.74.2-.84,1.46-1.4.56-2.67-.67-.95-.32-.49-.64-1.49-.07-.21-.37-.37-.5-.63-.29-.59-.44-3.91-.35-4.67.03-.28.08-.51.33-.68.74-.1,1.3-.63,2.03-.73.77-.11,1.56.06,2.32-.19.42-.14.71-.51,1.17-.59,1.08-.17,2.26.06,3.37-.14.58-.11.97-.48,1.65-.6,1-.17,2.15-.03,3.11-.15.63-.08,1.47-.46,2.18-.58,1.23-.21,1.6-.16,2.79-.6,1.11-.41,2.74-.1,3.95-.19.75-.06,1.96-.64,2.66.16ZM131.35,105.78c.09.72-.06,1.58,0,2.32l1.18-1.39c-.12-1.02.79-2.05.92-2.72.1-.5.1-3.64-.16-3.92-.62-.7-2.78.44-3.54.6-1.11.23-2.41.25-3.54.41.54.46,1.41.52,2.09.85,1.29.64,2.88,2.39,3.05,3.85ZM123.08,101.71l-1.69.88c-.86.6-1.01,2.98-.94,3.96.22,3.23,2.64,5.66,5.96,5.32,2.5-.26,3.89-4.33,3.01-6.39-.46-1.08-1.66-1.91-2.75-2.26-1.37-.45-2.32-.53-3.26.77-.99,1.37-.46,4.74,1.4,5.11.86.17,1.6-1.39,1.49-2.11-.02-.11-.3-.84-.33-.88-.25-.24-.29.45-.36.57-.76,1.34-2.24.25-1.41-1.29.9-1.68,3.42-.88,3.76.81.4,1.96-.87,4.86-3.17,4.67-3.47-.28-4.57-5.66-2.69-8.08.29-.38.75-.65,1-1.07ZM123.08,113.24c-1.33-1.03-2.49-1.42-3.35-2.98-1.02-1.84-1.43-5.57-.55-7.5.15-.32.69-.48.64-.74-.15-.22-.33-.2-.56-.19-.38.01-2.46.29-2.73.39-.11.04-.22.32-.6.43-.49.15-1.65.06-1.95.31-.19.16-.09,1.49-.05,1.81.08.56.47,1,.61,1.52.29,1.06-.03.75.64,1.65.18.24.22.69.39.96.94,1.47,2.71,3.33,4.32,4.08.94.43,2.17.41,3.18.26Z"/>
    <path d="M77.36,107.65c-.57.67-1.24,1.49-1.94,2.01-.38.28-.78.13-.93.94-.04.21.72,1.96.83,2.32-.08.78-.71,1.84-1.58,1.32l-.3-1.96c-.39-.54-2.14-.49-2.53,0-.61.76.42,2.04-.5,2.76-.32.25-.85.57-1.18.19-.17-.19-.81-1.34-.83-1.57-.03-.41.32-.58-.3-.82-.44-.17-1.87-.21-2.3-.02-.56.24-1,1.85-1.41,2.1-.17.1-1.1.11-1.3.05-.39-.13-.21-1.99-.05-2.4.09-.22.43-.33.3-.6l-.39-.5c-.91-.26-1.34-1.28-2.11-1.73-.84.3-.63,1.3-1.59,1.55-1.05.28-1.27-.98-.94-1.7.34-.75,1.46-.78,1.52-1.97.05-1.04-.22-1.16-.55-1.89-.16-.36-.13-1.14-.49-1.27-.74-.25-.74.29-1.05.54-.06.05-1.01.57-1.07.58-.39.04-.79-.59-.78-.93.02-.65,2.13-2.52,2.96-2.23.17-.36.3-1.72-.06-1.85-1.1.1-3.11-.16-2.77-1.68.04-.19.21-.46.4-.48.54-.06,1.44-.01,2.02,0,4.71.13,9.33.11,14.02.9,1.78.64,5.01.44,6.6,1.17,1.25.57.51,2.54.28,3.55-.35,1.57-.93,2.34-1.99,3.59ZM66.52,100.45c-.88.06-1.96-.38-2.8-.33-.25.01-.52.17-.78.19-.89.08-2.18-.16-2.53.98-.45,1.5.08,2.04.41,3.29.19.7.1,1.57.35,2.16.23.55.95,1.1,1.15,1.49.16.3.11.84.32,1.06.11.12.37.11.47.22.12.12.09.4.28.53.18.12,1.03.28,1.25.25-.26-.46-.78-.8-1.06-1.2-.89-1.27-.76-4.37-.12-5.75.73-1.58,1.44-1.91,2.88-2.64.13-.07.24.07.18-.26ZM69.12,102.63c-1.21-1.01-3.19-.15-3.9,1.1-.54.97-.91,3.1-.33,4.06.98,1.61,3.56,2.05,5.28,1.64.47-.11.74-.35,1.06-.7,2.14-2.37,2.38-7.66-1.69-7.9-.01.21.27.11.44.24,2.64,2.01,1.99,7.03-1.64,6.91-2.26-.08-3.19-2.5-1.82-4.21,1.17-1.46,3.6-.44,2.51.85-.42.49-1.84-.17-1.27,1.38,2.13,1.05,2.72-2.24,1.35-3.39ZM72.92,109.36c.13.1,1.26-.73,1.44-.88.74-.61,2.59-2.48,2.97-3.3.14-.3.12-.66.3-.96.13-.22.46-.37.53-.6s.09-1.23-.09-1.36l-4.27-.81c1.16,2.53.75,5.66-.88,7.9Z"/>
    <path d="M87.88,132.27c1.89,1.48,5.13,2.28,7.23,3.37.18.09.27.34.47.41.69.21,2.28.05,3.08.18.58.1.81.51,1.24.64.51.16,1.01.03,1.52.11.66.11,1.02.62,1.5.77.37.11.85-.04,1.32.18.27.12,1.21.92,1.23,1.22.12,1.54-2.16,1.31-2.99,1.47-.27.06-.56.31-.85.41-.71.23-1.94.28-2.68.18-.53-.07-.94-.53-1.39-.5-.4.02-.69.44-1.14.51-.66.1-2.43.08-3.13.01-.77-.07-1.23-.53-1.89-.62-1.13-.15-2.81.05-3.85-.16-.44-.09-.89-.57-1.34-.67-.39-.09-.76-.01-1.14-.11-.43-.11-.73-.6-.96-.67-.58-.17-1.83.11-2.02-.74-.11-.51.03-1.18-.16-1.72.2-1.12-.03-2.59.14-3.63.11-.66,1.58-2.05,2.31-2.09,1.08-.06,1.2.37,1.94.7.89.4.68.1,1.54.78ZM102.76,138.95c-.46-.09-1.11-.05-1.54-.15-.39-.09-.56-.52-1.04-.59-.43-.07-.91.04-1.36-.02s-1.15-.34-1.53-.35c-.35,0-.71.29-.96.22-.19-.05-.37-.4-.62-.51-.8-.36-2.25-.68-3.09-1.05-.25-.11-.55-.51-.88-.62-.98-.33-.86-.43-1.52-.74-.24-.11-.56-.08-.82-.18-.34-.14-.46-.46-.69-.57-.29-.14-.65-.07-.99-.27-.36-.2-1.02-.93-1.39-1.11-.46-.22-1.25-.19-1.75-.19-.08.08.19,1.43.32,1.62.04.05.89.76.97.8.5.31,1.06.21,1.5.37.17.06,1.41.92,1.46,1.06.27.91-1.44.83-2.02.63-.3-.1-.47-.32-.72-.41-.37-.13-2.64-.39-2.63,0,.39.83,1.25.69,1.91.97.31.13.53.48.94.57.8.17,1.81.06,2.59.16.57.08,1.23.49,1.9.6,1.81.31,9.75.41,11.44.05.12-.03.54-.12.53-.29Z"/>
    <path d="M136.71,94.22c.26.26.37,1.03.26,1.38-.19.63-1.25.49-1.73.28-1.06-.47-2.06-.71-3.14-1.12-.97-.37-2.28-.14-3.32-.19-2.72-.14-5.98-.42-8.5.52-.81.3-1.44.13-2.2.31-.53.12-.92.53-1.49.64-.38.08-1.21,0-1.5.13-.25.11-.38.38-.63.5-.7.35-.75.03-1.47.65-1.09.93-1.84-1.2-.98-1.76.16-.1.44-.11.63-.22.97-.54,1.56-.5,2.29-.85.2-.1.33-.41.63-.5.58-.18,1.3.04,1.97-.16.43-.13.67-.46,1.14-.61.81-.26,1.5-.03,2.2-.19.37-.08.68-.52,1.16-.59,1.74-.27,6.24-.24,8.01,0,.56.08,1.02.5,1.55.59.88.15,1.83-.11,2.7.19.43.15.55.47.9.6.45.18,1.19.05,1.54.4Z"/>
    <path d="M104.6,123.1c-.27.24-.63.41-.89.67,0,.96.23,2.36,0,3.28-.13.53-.97,2.07-1.3,2.58-.2.31-.12.7-.59.79-1.09.22-1.59-.41-1.95-1.31l.9-1.12c.37-.24,1.07-.02,1.28-.48,0-1.05.71-1.9-.16-2.8-.59.36-1.22.23-1.79.35-1.24.27-1.97.69-3.41.46-.31-.05-.51-.28-.79-.34-1.05-.23-2.31-.45-2.3,1.04,0,.12.28,1.22.33,1.31.55.86,2.22.14,2.43,1.84.24,1.97-1.54,2.44-2.55.8-.26-.43-.12-.84-.31-1.16-.08-.13-.37-.2-.51-.4-.95-1.32-1.14-2.49-.68-4.08-.2-.19-.55-.23-.74-.39-.33-.26-.83-.81-1.14-1.11-.37-.37-2.01-1.63-.86-1.98,1.04-.32,1.38.7,1.98,1.23.96.85,1.31.71,2.33,1.06.35.12.62.57,1.09.67.62.13,4.89.09,5.34-.12.24-.12.36-.37.64-.48,1.11-.46,2.41-.97,3.3-1.78.33-.31.97-1.39,1.47-1.35,1.34.78-.41,2.2-1.11,2.84Z"/>
    <path d="M65.86,89.45c.63-.12,2.04-.07,2.71-.01,1.06.1,1.91.62,2.92.72,1.1.12,2.39-.18,3.43.2,1.34.49,1.36.35,2.64.62.5.11.84.53,1.24.64.49.13,1.13.05,1.64.24.28.11.43.37.66.47.63.28,1.24-.02,1.44.94.22,1.07-.69,1.58-1.59,1.09-.23-.12-.32-.39-.61-.52-.44-.2-.92-.09-1.32-.19-.37-.09-.7-.52-1.11-.64-.51-.15-1.11-.07-1.64-.24-.46-.15-.72-.5-1.3-.58-.81-.11-1.78.05-2.62-.01-1.44-.1-2.99-.64-4.39-.75-1.28-.09-2.59.04-3.86.1-1.3-1.27.05-1.24.88-1.58.3-.12.41-.41.88-.5Z"/>
    <g>
      <path d="M160.11,97.78c.49.61,1.51,1.67,2.1,2.22.17.16.48.19.62.38.36.47.2,1.64-.45,1.7-.72.07-2.38-2.33-3-2.89-1.18-1.08-.81.39-1.17,1.1-.34.65-.32.5-.58,1.3-.48,1.49-2.07,1.41-1.81-.04.05-.3.39-.49.51-.75.23-.49.44-1.21.7-1.81.13-.31.41-1.79.38-2.08-.02-.14-.25-.64-.35-.78-.55-.83-2.33-1.95-2.39-2.89-.02-.3.28-.64.57-.68.73-.1,2.11,1.72,2.62,2.24,1.17-.52.83-1.33.95-2.28.14-1.08,1.68-1.41,1.84-.23.1.74-.42.99-.61,1.59-.27.87-.05,1.84-.75,2.65-.03.38.36.54.56.81.1.14.12.32.23.46Z"/>
      <path d="M158.73,106.06c.14.16.47.19.56.5.06.22.07.99.02,1.22-.09.46-.56.52-.71.73-.11.15-.07.44-.19.56-.32.33-2.26.37-2.68.04-.19-.15-.44-1.09-.43-1.33,0-.15.37-1.46.45-1.56.03-.04.61-.6.65-.64.41-.32,1.32-.35,1.79-.19.42.14.34.44.53.66Z"/>
    </g>
    <g>
      <path d="M38.98,103.92c.84,1.03,1.39,1.78,2.16,2.92.23.34.64.42.56.94-.09.65-1.09.73-1.56.43-.06-.04-.78-.97-.88-1.12-.36-.52-.71-1.3-1.09-1.85-1.22-.21-.82.23-1.1.93-.05.12-.89,1.72-.96,1.8-.21.27-.78.66-1.01,1-.72-.26-.79-1.09-.61-1.75.1-.37.43-.6.59-.91.54-1.04,1.01-2.13,1.58-3.17-.68-.32-.57-.83-.87-1.35s-.88-1.17-1.14-1.62c-.35-.61-.35-1.58.57-1.56,1.31.03.99,1.34,1.86,2l.35.96c-.06-.7.59-1.1.76-1.56.16-.41.05-.78.31-1.2.34-.55,1.21-1.41,1.69-.58.45.78-.38,1.54-.61,2.16-.14.39-.11.8-.25,1.13-.13.31-.53.54-.63,1-.11.52-.07.95.27,1.37Z"/>
      <path d="M37.65,110.64c1.17-.26,2,.12,2.53,1.18.92,1.85-1.86,2.79-2.67,1.42-.08-.13-.55-1.57-.56-1.68,0-.41.29-.82.7-.91Z"/>
    </g>
  </g>
</svg>