<?xml version="1.0" encoding="UTF-8"?>
<svg id="Layer_1" xmlns="http://www.w3.org/2000/svg" version="1.1" viewBox="0 0 191.7 177.3">
  <!-- Generator: Adobe Illustrator 29.4.0, SVG Export Plug-In . SVG Version: 2.1.0 Build 152)  -->
  <path d="M117.9,2.1c.7.4,1.6.8,2.2,1.4.9.9,1.1,1.8,1.7,2.7.4.6.5.7.9,1.3.2.4,1.1,1.5,1.2,1.7.1.2,0,.5.1.8.1.3.4.6.6.9.9,1.9,1.7,4.5,3.7,5.4.2.1.8.1.9.2s0,.4.3.5c.3.2.9.2,1.1.3.2,0,.2.4.4.5.3.2.6,0,.9.2.2,0,.3.4.5.5.5.3,5,.3,5.8.2.7,0,1.1-.6,1.6-.7.6-.1,1.4,0,2-.2.4-.1.7-.5,1-.5,1.4-.3,2.3,0,3.9-.6.7-.2,2-.3,2.7-.2.6,0,.8.5,1.3.6.7.1,1.6,0,2.4.2s2,1.5,2.2,2.3c.1.4.1,4,0,4.4,0,0-.6,1.2-.7,1.3-.2.3-.5.2-.6.3-.3.3-1.4,1.9-1.6,2.3-.1.2-.1.6-.2.7-.1.1-.4,0-.4.2-.3.5.1,1.5-.4,2-.1.1-.3-.1-.4.4-.1.5,0,1.1,0,1.7-.2,1.3-1,1.5-.7,3.3.1.7.5.8.7,1.2s0,.9.1,1.4c0,.2.3.2.4.4.2.3.2.8.3,1,.1.2.5.2.6.5s0,.5.1.8c0,0,1.1,1.1,1.3,1.2.2.2,1.1,1.3,1.2,1.3.2,0,.5,0,.7.2.3.1.3.5.5.5.3.2.9.2,1.2.4.2,0,.2.3.4.4.4.2,1.8.7,2.2,1,.2.1.1.4.3.6,1,1,1.1,1.3,1.7,2.7.9,2,1.7,3.8,1,6.1-.3.9-.3.9-.4,1.9s-.3.9-.7,1.6c-.6,1.1-1.4,2.2-.7,3.5.1.2.4.3.6.5.1.2.2.5.2.6,0,0,.3,0,.4.1.1.1,0,.5.2.6s.5,0,.6.1c.1,0,0,.3.1.4.3.4,1.9.8,1.6,1.8h.5c0,.8.4,1,.8,1.6.7,1.1,1.4,2.2,2.3,3.1,1.6,1.4,1.6,2,2.5,3.8.1.3.4.4.5.6.2.5,0,1,.2,1.4.1.6,1.3,2.3,1.4,2.9,0,.4,0,3.6,0,3.8,0,.2-.4.3-.6.4-.2.2-.8,1.1-1,1.3-.2.2-1.4.2-1.4.6,0,.6.5.4.6.7.1.3,0,.8.1,1,0,.1.4.1.5.2.1.2.1.4.3.6.1.2.5.3.6.5.1.3,0,.6.1.9.1.2.6.3.7.7.1.3,0,.6,0,.8.1.3.5.3.6.5.1.2,0,.6.1.9.1.4.6.7.7,1,.1.5,0,1.2.2,1.7,0,0,.4.3.5.5.2.6.1,1.3.3,1.8,0,.3.4.4.6.8.2.5,0,1,.1,1.3.1.5,1.1,2.1,1.3,2.7s0,1.3.2,1.8c0,.3.4.5.5.8.2.5,0,1.2.2,1.7,0,.2.4.4.5.6.3.5.1.9.3,1.3.1.3.5.6.6,1,.1.5,0,1,0,1.5,0,.4.5,1,.6,1.3.4,1.2,0,2.6.4,3.8.1.4.5.8.6,1.3.1,1.1,0,2.4.1,3.6.1.7.5,1.3.6,2,.3,2.7-.1,5.5.1,8.2,0,.9.5,1.6.6,2.4.2,1.6.3,5,0,6.5,0,.4-.5.7-.6,1-.1.7,0,1.7-.2,2.5,0,.4-.4.6-.5,1-.2.5-.1,1.2-.3,1.6,0,.2-.3.2-.4.4-.2.4-.1.8-.3,1.1-.4.7-1,1.7-1.5,2.4-.2.2-.5.4-.6.6-.1.3-.1.7-.3.9-.1.1-.3,0-.4.2,0,0-.7,1-.8,1.1-.1.2-.1.8-.3,1-.2.2-.5,0-.6.1,0,0,0,.4-.1.6-.1.2-.6.2-.7.3s0,.4-.2.5c-.2.1-.6.2-.9.4-.9.8-1.8,1.9-2.8,2.7-.2.1-.5.1-.6.2s0,.3-.2.5c-.2.2-.7.1-1,.3-.2.1-.2.4-.4.5-.3.2-1,.3-1.3.5-.1,0-.1.3-.4.4-.3.1-.9,0-1.3.2-.2.1-.3.5-.8.6-.5.1-1,0-1.5.1-.5.1-.8.6-1.2.7-.6.1-1.3,0-2,.1-.5.1-.8.6-1.1.6s-1.1,0-1.6,0c-1.9.2-3.8.5-5.6.5-1.3,0-2.2-.4-3.4-.5-1.5-.1-3.1.1-4.5,0-.8,0-1.4-.4-2.1-.6-1.2-.2-2.6-.4-3.9-.6-1.4-.2-3.5-.2-4.9-.2s-2.3.5-3.6.6c-.7,0-1.2.6-2,.8-.6.2-1,0-1.2.8v-.2h-.4c0,.4-.5.3-.8.4-1,.6-1.9,1.2-2.9,1.9-.2.2-.7.1-1,.3-.2.1-.3.5-.4.6-.2.1-.5,0-.8.2-.3.1-.4.6-.7.7s-.6-.1-1.1.1c-.3.2-.2.4-.4.5-.2.1-.8,0-1.1.1-.3.1-.4.5-.5.6-.2,0-.7,0-1,.2-1,.4-2,.9-3,1.3-.5.2-1.2.2-1.6.4-.4.1-.7.5-1.2.6-.2,0-.4,0-.5,0,0,0-.3.5-.5.6-.7.4-.9,0-1.4.2,0,0-.9.5-1,.6-.5.2-2.5,0-3.4.3-1,.2-1.9.3-2.8.6-.7.1-1.1.6-1.7.7s-1.4,0-1.9.2c-.9.2-1.4.7-2.7.7-1.7,0-2.2-.4-3.7-.7-.4-.1-1.1,0-1.6-.2-.6-.1-.8-.5-1.2-.6-.6-.2-1.1,0-1.6-.2-.4-.1-.6-.4-1-.5-.6-.2-1.1,0-1.7-.3-1-.4-.9-.4-2-.6-.8-.1-1.3-.6-1.8-.7-1.8-.4-2.9-.7-4.5-1.5s-3.6-1.1-5.3-1.8c-.3-.1-.6-.5-1-.5-.7-.1-1.6,0-2.3-.2-.5,0-1-.5-1.4-.6-2.1-.5-9-.5-11.1,0-2.6.6-5,1.5-7.3,2.7-.2,0-1.7.7-1.9.8-1,.2-1.3-.4-1.8-.4-.2,0-.6.4-1,.5-1.2.2-1.1,0-2.3.6-.7.4-7,.4-8.2.3-.4,0-1.5,0-1.9-.2-.4,0-.5-.5-.8-.6-.4-.1-1,0-1.5-.2-.4-.1-.6-.5-1-.6-.5-.1-1,0-1.4-.2-.3-.1-.3-.4-.6-.5-.8-.3-.8-.2-1.6-.7-.4-.2-.9-.2-1.2-.4-1.6-.7-5.7-4.1-6.8-5.5-.6-.7-2.3-3.1-2.4-3.8,0-.8,0-1.7-.2-2.5,0-.2-.4-.4-.5-.6-.3-.7-.1-1.6-.2-2.4-.2-1.5-.7-2.4-.5-4.1,0-.6.4-1.1.5-1.6.1-.7,0-1.7.2-2.4,0-.3.4-.5.5-.8.2-.5.1-1.2.2-1.7,0-.4.5-.6.6-1.1.1-.4,0-.9.1-1.2.1-.3.5-.4.6-.6.1-.3,0-.6.2-.9.1-.3.5-.4.6-.5.1-.2,0-.7.3-1s1.1-1.1,1.3-1.4,0-.7.2-.9c0-.2.4-.2.6-.4.3-.5.7-1.6,1-2.2.4-.7.8-1.3,1.2-2,.1-.2.2-.8.3-.9.1-.1.4,0,.5-.3.2-.2.1-.6.2-.9s.5-.4.6-.8c.1-.3,0-.9.2-1.1,0-.1.5-.2.6-.5,0-2.1.1-4.2.1-6.2,0-1.3,0-3.5,0-4.8,0-.2-.8-2.7-.9-2.9-.2-.4-1.1-1.5-1.5-1.9-1.1-1.4-2.3-2.1-3.6-3.3-1.2-1-2.2-1.5-3.1-3.1-.2-.3-.1-.8-.3-1.1-.1-.2-.4-.3-.5-.7-.1-.6,0-1.3-.2-1.9-.3-1.1-.6-1.2-.5-2.5,0-.3.6-3,.7-3.2.3-.6,1-1.6,1.3-2.2.2-.3.1-.8.3-1.1,0-.1.4-.2.5-.4s0-.7.2-.9c.1-.3.5-.2.6-.3.1-.2.1-.8.2-1s.4-.2.5-.4c1.4-1.8,2.6-3.7,4.3-5.2,1.2-1.1,1.9-1.9,2.9-3.1.2-.2,1.2-1.2,1.3-1.3,0-.2,0-.5.1-.8.1-.3.6-.4.6-.6.1-.3,0-.6.2-1s1.1-1.2,1.4-1.7.5-.8.8-1.2c.2-.3,0-.7.2-.9.1-.2.5-.3.6-.5.2-.4,0-1.2.3-1.8.2-.4.5-.3.5-.8.2-1.5-.6-1-1.6-1.2-.5-.1-.9-.5-1.3-.5-.7-.1-1.5,0-2.2-.2,0,0-1.4-.7-1.5-.8-1.2-.8-1.8-2.6-1.6-4,0-.5.3-.8.4-1.2.4-1.6.2-2,1.5-3.2.3-.3.9-1.2,1.1-1.4.2-.2.5-.2.6-.3,0-.1,0-.4,0-.5,0,0,.5,0,.6-.2.3-.2,1.2-.6,1.4-.7.3-.2.3-.4.9-.8.3-.2,2.1-1.4,2.3-1.7.4-.4.2-.3.8-.7,1.1-.7,2-1.5,3.1-2.1.5-.3,1.8-1.6,2.1-2.1.6-1,1.2-1.7,1.9-2.6,1.8-2.3,4-4.5,6-6.7.9-1,1.5-2.1,2.4-3,1.1-1.2,2-2.7,3.1-3.8.2-.2.4-.2.6-.4,0-.2.1-.5.2-.5,0,0,.3,0,.5,0,.2-.1.2-.6.4-.7.3-.3.9-.7,1.2-1.1.2-.3.2-.7.3-.9.2-.3.5-.2.6-.4.1-.1,0-.5.2-.6,0-.1.3,0,.4-.2,1.7-1.6,3.2-3.7,4.8-5.2.1-.1.4-.1.6-.3.2-.2.2-.5.3-.6.1,0,.4,0,.5,0,0,0,.1-.4.3-.5.2-.2.4-.2.6-.3.2-.2.2-.5.2-.6,0,0,.3,0,.5,0,.1,0,.1-.4.3-.5.7-.8,2-1.2,2.8-1.8.2-.2.2-.5.3-.6s.5,0,.8-.2c.3-.1.6-.5.6-.5,2.1-1,4.2-2.2,6.3-3.1,1.1-.5,2-.6,3.1-.9.4-.1.6-.5,1-.6.6-.2,1.8,0,2.4,0,1.8-.2,3.1-.8,5.1-.6.5,0,2.2.6,2.5.6.3,0,.4-.5.6-.6.3-.2.7-.2,1-.4.1,0,.2-.3.2-.4.9-.6,1.7-1,2.5-1.6.8-.6,1.4-.6,2-1,.1,0,.2-.4.4-.5.8-.5,2.4-1.4,3.2-1.7.3-.1.5-.5.8-.6.3-.1.7,0,1-.2s.6-.5,1-.6c.3,0,.7,0,1-.1.4-.1.7-.5,1-.6.5-.2,1,0,1.5-.2.3-.1.4-.4.8-.5s1.1,0,1.6-.2c.2,0,.5-.4.9-.6.6-.2,1.2,0,1.8-.2.4,0,.7-.5,1.3-.6,1.3-.2,3.5-.2,4.8,0,.7.1,1.3.5,1.9.6.8.1,2.3-.1,3,.3h0ZM94,89.2v3c-.7.2-3.5.5-3.9.2,0,0,0-.3-.2-.3-.5-.1-1.3.1-1.8,0,0,0-.2-.4-.5-.2v-.2c-.2,0-.5,0-.8,0-.2,0-.6-.8-.7-.8-.3,0-.7,0-1.1,0,0,0-.3-.4-.4-.5-.4-.1-1-.1-1.4-.3-.6-.3-.7-1-1.6-.8v-.3c-.5.1-.5-.2-.6-.3-.2,0-.4-.2-.5-.2-.2-.2-.2-.7-.7-.6v-.2c-.2,0-.3-.2-.6-.4-1.1-1-1.5-1.7-2.1-3,0,0-.5-.3-.5-.4-.2-.3-.1-.9-.4-1.2-.1-.2-.7-.5-.7-.8v-1.9c-.8.2-.9,1.7-.8,2.4,0,.4.6.6.7.8,0,.2,0,.5,0,.7,0,0,.4.3.5.4.4.7.4,1.3.3,2,0,.2-.2.2-.3.2-.3,0-3,0-3.2,0s-.3-.5-.5-.6c-.3-.2-.6-.2-1-.4-.8-.5-1.9-1.5-2.8-2.1-.3-.2-1.4-1.9-1.7-2-.2,0-.3,0-.5,0v-.2c.1,0-.7-.1-.7-.1l-1.9-2.1h-1.3c-.5,1-1.1.7-1.8.9-.9.3-2.4,2-3.1,2.7-1.5,1.6-2.7,2.6-3.7,4.5-.2.3-.9.9-.9,1,0,.3,0,.6,0,.8,0,.2-.5.3-.6.5,0,.3,0,.7,0,1,0,.3-.5.5-.5,1h-.4c0,.8,0,1.2-.3,1.9-.3.8-.2,1.1-.4,1.9,0,0-.7.9-.8,1.1,0,.4,0,.9,0,1.3-.1.4-.6.6-.7,1-.1.5,0,1.2,0,1.6,0,0-.2,0-.2.2,0,.2,0,.5,0,.8,0,.3-.4.4-.4.5-.3,1.3.1,4,0,5.5,0,.3,0,.5-.1.8h-1.5v-.2c.1,0-.5,0-.5,0,.2-.5-.5-.9-.7-1.2-.5-.8-1-1.9-1.4-2.8,0-.1-.2-.1-.2-.2-.1-.6.2-.8-.3-1.2,0,0-.3,0-.3,0,0,0,0-.7,0-.9,0-.2-.3-.5-.3-.8-1.1-.7-.4-1.6-.6-2.5,0-.3-.7-.6-.8-1.2-.1-.8.2-3.3-.2-3.8,0,0-.6-.6-.6-.6-.3-.2-3.4-.3-3.8-.2,0,0-.3.2-.5.3-2,.9-3.5,2.7-4.8,4.4,0,.1,0,.3-.2.4-.2.2-.5.2-.5.3-.1.1,0,.9-.2,1.2-.1.2-.5.3-.5.4,0,0,.1.2,0,.3,0,.1-.3.2-.3.4-.1.5.1,1.3,0,1.9,0,.4-.5.8-.6,1.1-.1.5-.1,4.6,0,5.1,0,0,.6.6.6.7.1.4,0,1.1,0,1.5,0,0,.2,0,.2.2.3.5.5,1,.8,1.4.7,1.1,1.6,2,2.6,2.6.3.2.4.6.5.7.2,0,.5,0,.7.2s.3.6.6.7c.4.1.9,0,1.3,0,.6,0,1,.7,1.5.8.4,0,2.5,0,2.7-.2,0,0,0-.4.3-.5.3-.2.8,0,1.1-.1.1,0,.2-.4.4-.5.7-.6,1.7-1.4,2.2-2.2,0,0,0-.3,0-.4s.3,0,.3,0v-1.9h1.9c0,.4,0,1.1,0,1.4,0,0,.5.3.6.6.2.4,0,.8,0,1.2,0,0,.7,1,.8,1.2.1.4,0,.8.1,1.2,0,.2.4.3.5.7,0,.3,0,.6,0,.8,0,.1.3.1.4.3.1.3,0,.9,0,1.2,0,0,.4.3.6.5.2.3.6.8.7,1,.2.3,0,1.2.7,1.1-.2,1,.3,1.1.9,1.7,0,0,.1.3.2.5.2.2.5.2.6.3s0,.4.2.6.4.1.5.3c.1.2,0,.5,0,.5,0,0,.2,0,.3.2.2.4.5,1.2.9,1.1-.3.3.1.2.3.5,1,1.3,2.1,2.7,3.2,3.7.3.3.5.6.8.8-.2.4,0,.1.2.3.4.3,1.2,1.4,1.6,1.8.2.3.4.4.5.6.3.4,1,.4,1.2.6.6.7.9.8,1.5,1.4.2.2.5.6.5.7.2.1.5,0,.8.1,0,0,.5.4.6.6.3.2.5.7.9.9v.2c0,0,1.2,0,1.2,0l.2.5c.7-.2,1.1.5,1.6.8.1,0,.4,0,.5,0,0,0,0,.3.2.5.3.3.8.2,1.1.4.2.1.2.4.4.4.7.5,1.7.8,2.4,1.1.2,0,.6.6.6.6.4,0,.7,0,1.1.1.4.1.9.8,1,.9.3,0,.7,0,1,0,.4,0,.5.4.7.5.3.1.9,0,1.2.2s.4.5.8.5v.2c.2,0,.6,0,1,0,.5.1.8.8,1.4.6v.2c0,.1,1.4,0,1.8,0,0,0,.9.5,1,.5.4,0,1.9,0,2.3,0s.4-.4.6-.4c.2-.1,2.8-.1,3.2,0,.2,0,.1.2.4.3.8,0,1.7,0,2.5,0,2.6.1,6.3.6,8.9.3.2,0,.1-.2.4-.3.3,0,1.3,0,1.6,0,.7.1.6,1.2.6,1.8-.1.9-.4.6-1,.7,0,0-.8.6-1.1.7-.5.1-1.4,0-2,.1,0,0-.4.6-.8.6-.6.1-1.5-.1-2.1,0-.3.1-.6.7-.8.9-.5.3-1.2,0-1.7.1-.2,0-.3.4-.6.4-.7.2-1.7-.3-2.1.3,0,0,0,.2,0,.2-.7.7-1.4.2-2.1.4-.3.1-.5.6-.6.7-.3.2-1,0-1.3.6-.3.5-.4,2.4-.2,2.9,0,0,.9,1,1.1.8v.4c.3,0,1.2.4,1,.9h1.4v.2c.2-.1.2.2.4.2.3,0,.6,0,.9.1,0,0,.3.4.7.2v.2c.2,0,.5,0,.8,0,0,0,0,.2.2.2.3,0,3.3.3,3.6.3.2,0,.1-.2.4-.3.5,0,1.2,0,1.7,0,.7-1.2,1.6-.7,2.6-.9.1,0,.3-.5.4-.5.3,0,.7,0,.9,0,.1,0,.1-.2.2-.3.7-.4,1.3-.5,1.8-.9,1-.8,1.3-1,2.1-2,0-.1.3-.2.4-.3.5-.6.2-1.7.3-2.4l-.5-.5v-2.6c0-.3-.3-.3-.4-.5-.4-.6-.5-3.1-.3-3.8s1.2-.6,1.8-.6l.7-.7c.6-.1,1.3,0,1.8-.1.3,0,.5-.4.8-.5.4,0,.8,0,1.1,0,.1,0,0-.3.2-.4,0,0,.9-.4,1-.5.5-.1.9,0,1.3-.1-.2-.7,1.1-.6,1.6-.9.1,0,.2-.4.3-.4.2,0,.6,0,.8,0,0,0,.7-.9.8-.9.3,0,.7,0,1,0v-.4c.2.2.2-.2.4-.3s.5,0,.8-.1c.4-.1.6-.6.9-.7s.7,0,.9-.2c.1,0,0-.3,0-.4,0,0,.8-.2.9-.3.4-.2.7-.8,1.4-.6v-.2c.3,0,.4-.5.7-.8.5-.4,1.8-.9,2.3-1.5.8-.9.9-.8,1.7-1.5.1-.1.1-.4.3-.5.2-.2.6-.2.9-.4s1.7-1.6,1.9-1.9c.1-.2,0-.5.2-.7.1-.2.4-.2.6-.3.2-.2,0-.5.2-.6.4-.4.2,0,.6-.6.1-.2.5-.3.6-.3.3-.3.7-1,1-1.2,0,0,.7-.4.8-.5,0-.3,0-.9,0-1s.4,0,.6-.4c.1-.2.2-.6.3-.7s.3,0,.4-.1c0,0,0-.8.2-1.1,0-.1.5-.2.6-.4.1-.2,0-.4.1-.6.2-.5,1.2-1.5,1.4-2,.1-.3.1-.6.2-.9,0-.1.7-.6.8-.7,0-.3,0-.7.1-1,.2-.2.4-.2.5-.2,0,0,0-.4,0-.6,0,0,.4-.6.5-.7.1-.2.4-.3.5-.4,0-.2-.1-.5-.1-.5,0,0,.5-.2.6-.6.1-.5,0-1.4.3-1.9,0-.2.6-.5.6-.6.1-.7,0-1.7,0-2.5.1-1.2.9-2.1.6-3.3h1.6c.2.4,0,2.3,0,2.8,0,.7.4,1.3,1.1,1.3.5.7,1.3.9,1.7,1.7h3s-.1-.2-.1-.2c.5.1.4-.4.8-.6.3-.1.7,0,1-.2.1,0,.4-.5.4-.5.2,0,.5,0,.7,0,0,0,.6-.8.8-.9.8-.6,1-.8,1.8-1.6.3-.3,2.7-2.4,2.7-2.6.1-.3,0-.6,0-.9,0-.2.4-.3.6-.5.1-.3,0-.7.1-1,0-.1.8-.9.8-1,0-.4,0-1,0-1.4,0-.4.5-.8.6-.9.2-.6.2-6.5,0-7.1,0,0-.4-.2-.5-.5-.1-.5,0-1.2-.2-1.6,0-.1-.3,0-.4-.2-.5-.4-.2-.8-.3-1.2-.1-.3-.6-.7-.6-.8,0-.2,0-.7-.2-.9,0-.1-.4-.2-.6-.3-.2-.2-.6-1-1-1.2-.3-.2-1.3-.3-1.1-1-.7,0-1.5,0-2.2,0-.4,0-.6-.4-.9-.5-.7-.2-3-.2-3.7-.2-.5,0-.8.5-1.3.4v.2c-.4,0-.9,0-1.4.3-.7.5-.4.3-1.1.6-.2.1-1.2,1-1.4,1.2s-1.5,1.4-1.5,1.5c0,.3,0,.7,0,1.1,0,.3-.4.5-.5.7-.4.9-.8,1.7-1.1,2.5-.2.3-.5.5-.4,1h-.4c.4.5-.5.8-.5,1-.2.8-.4,1.8-.9,2.4-.1.1-.4,0-.4.2,0,0-.1.8-.2,1.1-.1.3-.6.4-.6.5-.1.2,0,.7-.2.9,0,.1-.6.3-.7.7h-1.4v-3.3c0-.1.3-.5.2-.7h.4c-.3-.4.2-.6.3-.8.3-2.2-.2-4.9,0-7.2-.3-.4-.7-.7-.8-1.2-.2-.8.3-1.6-.7-2v-.5c.1,0-.2,0-.2,0,0-.4,0-1,0-1.3,0-.2-.4-.2-.4-.4-.1-.2,0-.5-.2-.8-.2-.4-1.1-1-1.3-1.3-.7-1.1-.6-1.2-1.6-2.2-.1-.1-.7-.9-.8-.9-.2,0-.4,0-.6,0,0,0-.9-.7-1.2-.8-.7-.3-2-.6-2.8-.4-.2,0-.4.4-.6.5s-.8.1-.9.2c0,0-.1.4-.3.5-.8.8-1.6,1.6-2.3,2.3s-.7.7-1.3,1c-.3.2-.7.6-1,.7-.5.1-1,0-1.4,0-.2,0-.2.5-.7.6-.3,0-.8,0-1.1,0-.2,0-.3.2-.6.2-.4,0-.9,0-1.3,0v-.2c.1,0-.3,0-.3,0,0-.4,0-1,0-1.4,0-.2.2-.2.3-.3.1-.6.2-3.6.1-4.2,0-.2,0-.7-.2-.7,0,.4-.4.7-.6,1.1s0,.9-.2,1.3c-.4.8-1.2,1.3-1.6,2-.2.5-.4,1-.8,1.5-.3.4-.5.2-.5.2,0,0,0,.3,0,.5-.1.3-.6.5-.7.8-.2.3.1.4-.4.9-.7.7-.7,1.2-1.2,1.9s-2.4,2.1-3.1,2.6c-.2.1-.4.1-.6.3-.2.2-.2.5-.3.5,0,0-1.5,0-1.9.3-.1,0-.2.4-.3.4h-5.2c-.2-1.1-.3-2.8,0-3.9.2-.7.9-.9.7-1.9h.4v-.2c0,.2.5-.4.5-.5,0-.4,0-.8,0-1.2,0-.1.6-.4.6-.7v-5.7c-.9-.7-.5-1.4-.6-2.2,0-.1-.6-.5-.8-.7-.3-.5-.6-.9-.9-1.3-.2-.3-.3,0-.7-.7s-.6.2-.7.3c-.8.9-1.1,1.7-1.8,2.5-.2.2-1.1.8-1.2.9,0,0,0,.3-.2.5-.2.2-1.5.2-1.8,0-.7-.4-.2-3.9-.3-4.8,0,0-.6-.7-.7-.8-.2-.3-.2-1.2-.7-.8-.2.3-1.1.8-1.2,1.1,0,0,.1.2,0,.3,0,0-.3.1-.4.3-.2.3-.2.7-.3.9s-.6.4-.6.5c0,.2.1.3.1.5s-.2,0-.2.2c0,.3,0,.6,0,1s-.8.9-.8,1c-.1.6,0,1.5,0,2.1,0,.5-.6.8-.6,1.1-.2,1.1.2,2.6,0,3.8.7.6.7,1.1,1,1.9.1.3.4.5.5.7,0,.3,0,.6,0,.9.2.4,1.8,2,2.1,2.5.3.4.1,1.1.9.9h0Z"/>
  <g>
    <path d="M55.4,93v-1c0,0,1.7-1,1.7-1,.8.1,3.7-.7,3.9.4-.2.7-.9.6-1.4.7-1.3.5-1.3.4-2.7.6-.5,0-1,.4-1.5.2h0Z"/>
    <path d="M88.4,115.4c1-.3,2.3,1.1,1.7,2,0,.1-.4.2-.6.3-.3.3-.4.7-1.1.5-.3,0-.8-1.1-.8-1.3,0-.4.3-1.4.7-1.5h0Z"/>
    <path d="M104.9,115.5c1.6-.5,1.9,2.2,0,1.8-.7-.1-.7-1.6,0-1.8Z"/>
    <path d="M138.2,98.1c.2.2.2.4,0,.6,0,0-.8.8-.9.9-.5.2-1.8,0-2.5.3.4.6.2,1.9.4,2.3.2.4.9.1,1.4.4,0,0,.9.8.9.9.3.5.2,1.5-.4,1.6-1.2.2-1.4-.9-2.4-.6-.1.4-.1.9-.2,1.4-.2.7-.5,1-.7,1.9,0,.3-.3.4-.3.7.3,0,.8.2.9.4,0,0,.8,1.4.8,1.5.2.7,0,.8-.5.9-1.2.1-.9-.1-1.4-.7-.1-.2-.3-.2-.5-.4-.2-.2,0-.6-.4-.5-.4.8-1.3,1.4-2,2-.1.2-.1.4-.2.5-.1.1-1.5.7-1.5,1,.8.5.8,3.4-.5,2.5-.7-.5-.8-1.1-1.2-1.8-.5.8-1.4.5-2.1.7-.3,0-.6.5-.9.6-.7.1-2.6-.2-3,.2-.5.4.1,3.3-1.2,2.1-.8-.7-.7-1.8-.3-2.6-.5-.5-1.3-.8-1.9-1.2-.3-.2-.8-.9-1.2-1.2-.5-.3-.6-.2-1.1,0,.5.3,0,1.3-.3,1.3-1.4.4-1.6-.6-1.4-1.7.2-.8,1.5-1.4.6-2.7-.7-.9-.3-.5-.6-1.5,0-.2-.4-.4-.5-.6-.3-.6-.4-3.9-.3-4.7,0-.3,0-.5.3-.7.7,0,1.3-.6,2-.7.8-.1,1.6,0,2.3-.2.4-.1.7-.5,1.2-.6,1.1-.2,2.3,0,3.4-.1.6-.1,1-.5,1.7-.6,1-.2,2.2,0,3.1-.2.6,0,1.5-.5,2.2-.6,1.2-.2,1.6-.2,2.8-.6,1.1-.4,2.7,0,3.9-.2.8,0,2-.6,2.7.2h0ZM131.4,105.8c0,.7,0,1.6,0,2.3l1.2-1.4c-.1-1,.8-2.1.9-2.7.1-.5.1-3.6-.2-3.9-.6-.7-2.8.4-3.5.6-1.1.2-2.4.2-3.5.4.5.5,1.4.5,2.1.8,1.3.6,2.9,2.4,3.1,3.8ZM123.1,101.7l-1.7.9c-.9.6-1,3-.9,4,.2,3.2,2.6,5.7,6,5.3,2.5-.3,3.9-4.3,3-6.4-.5-1.1-1.7-1.9-2.8-2.3-1.4-.4-2.3-.5-3.3.8-1,1.4-.5,4.7,1.4,5.1.9.2,1.6-1.4,1.5-2.1,0-.1-.3-.8-.3-.9-.2-.2-.3.4-.4.6-.8,1.3-2.2.2-1.4-1.3.9-1.7,3.4-.9,3.8.8.4,2-.9,4.9-3.2,4.7-3.5-.3-4.6-5.7-2.7-8.1.3-.4.8-.7,1-1.1h0ZM123.1,113.2c-1.3-1-2.5-1.4-3.3-3-1-1.8-1.4-5.6-.6-7.5.2-.3.7-.5.6-.7-.2-.2-.3-.2-.6-.2-.4,0-2.5.3-2.7.4-.1,0-.2.3-.6.4-.5.2-1.7,0-1.9.3-.2.2,0,1.5,0,1.8,0,.6.5,1,.6,1.5.3,1.1,0,.8.6,1.7.2.2.2.7.4,1,.9,1.5,2.7,3.3,4.3,4.1.9.4,2.2.4,3.2.3h0Z"/>
    <path d="M77.4,107.7c-.6.7-1.2,1.5-1.9,2-.4.3-.8.1-.9.9,0,.2.7,2,.8,2.3,0,.8-.7,1.8-1.6,1.3l-.3-2c-.4-.5-2.1-.5-2.5,0-.6.8.4,2-.5,2.8-.3.2-.8.6-1.2.2-.2-.2-.8-1.3-.8-1.6,0-.4.3-.6-.3-.8-.4-.2-1.9-.2-2.3,0-.6.2-1,1.8-1.4,2.1-.2,0-1.1.1-1.3,0-.4-.1-.2-2,0-2.4,0-.2.4-.3.3-.6l-.4-.5c-.9-.3-1.3-1.3-2.1-1.7-.8.3-.6,1.3-1.6,1.6-1,.3-1.3-1-.9-1.7.3-.8,1.5-.8,1.5-2,0-1-.2-1.2-.5-1.9-.2-.4-.1-1.1-.5-1.3-.7-.2-.7.3-1,.5,0,0-1,.6-1.1.6-.4,0-.8-.6-.8-.9,0-.7,2.1-2.5,3-2.2.2-.4.3-1.7,0-1.8-1.1,0-3.1-.2-2.8-1.7,0-.2.2-.5.4-.5.5,0,1.4,0,2,0,4.7.1,9.3.1,14,.9,1.8.6,5,.4,6.6,1.2,1.2.6.5,2.5.3,3.6-.3,1.6-.9,2.3-2,3.6h0ZM66.5,100.4c-.9,0-2-.4-2.8-.3-.2,0-.5.2-.8.2-.9,0-2.2-.2-2.5,1-.5,1.5,0,2,.4,3.3.2.7,0,1.6.3,2.2.2.6,1,1.1,1.2,1.5.2.3.1.8.3,1.1.1.1.4.1.5.2.1.1,0,.4.3.5.2.1,1,.3,1.2.2-.3-.5-.8-.8-1.1-1.2-.9-1.3-.8-4.4-.1-5.8.7-1.6,1.4-1.9,2.9-2.6.1,0,.2,0,.2-.3h0ZM69.1,102.6c-1.2-1-3.2-.2-3.9,1.1-.5,1-.9,3.1-.3,4.1,1,1.6,3.6,2.1,5.3,1.6.5-.1.7-.3,1.1-.7,2.1-2.4,2.4-7.7-1.7-7.9,0,.2.3.1.4.2,2.6,2,2,7-1.6,6.9-2.3,0-3.2-2.5-1.8-4.2,1.2-1.5,3.6-.4,2.5.8-.4.5-1.8-.2-1.3,1.4,2.1,1.1,2.7-2.2,1.3-3.4h0ZM72.9,109.4c.1,0,1.3-.7,1.4-.9.7-.6,2.6-2.5,3-3.3.1-.3.1-.7.3-1,.1-.2.5-.4.5-.6s0-1.2,0-1.4l-4.3-.8c1.2,2.5.8,5.7-.9,7.9h0Z"/>
    <path d="M87.9,132.3c1.9,1.5,5.1,2.3,7.2,3.4.2,0,.3.3.5.4.7.2,2.3,0,3.1.2.6.1.8.5,1.2.6.5.2,1,0,1.5.1.7.1,1,.6,1.5.8.4.1.8,0,1.3.2.3.1,1.2.9,1.2,1.2.1,1.5-2.2,1.3-3,1.5-.3,0-.6.3-.8.4-.7.2-1.9.3-2.7.2-.5,0-.9-.5-1.4-.5-.4,0-.7.4-1.1.5-.7.1-2.4,0-3.1,0-.8,0-1.2-.5-1.9-.6-1.1-.1-2.8,0-3.8-.2-.4,0-.9-.6-1.3-.7-.4,0-.8,0-1.1-.1-.4-.1-.7-.6-1-.7-.6-.2-1.8.1-2-.7-.1-.5,0-1.2-.2-1.7.2-1.1,0-2.6.1-3.6.1-.7,1.6-2.1,2.3-2.1,1.1,0,1.2.4,1.9.7.9.4.7.1,1.5.8h0ZM102.8,138.9c-.5,0-1.1,0-1.5-.1-.4,0-.6-.5-1-.6-.4,0-.9,0-1.4,0s-1.2-.3-1.5-.4c-.3,0-.7.3-1,.2-.2,0-.4-.4-.6-.5-.8-.4-2.2-.7-3.1-1.1-.2-.1-.6-.5-.9-.6-1-.3-.9-.4-1.5-.7-.2-.1-.6,0-.8-.2-.3-.1-.5-.5-.7-.6-.3-.1-.7,0-1-.3-.4-.2-1-.9-1.4-1.1-.5-.2-1.2-.2-1.8-.2,0,0,.2,1.4.3,1.6,0,0,.9.8,1,.8.5.3,1.1.2,1.5.4.2,0,1.4.9,1.5,1.1.3.9-1.4.8-2,.6-.3-.1-.5-.3-.7-.4-.4-.1-2.6-.4-2.6,0,.4.8,1.2.7,1.9,1,.3.1.5.5.9.6.8.2,1.8,0,2.6.2.6,0,1.2.5,1.9.6,1.8.3,9.8.4,11.4,0,.1,0,.5-.1.5-.3h0Z"/>
    <path d="M136.7,94.2c.3.3.4,1,.3,1.4-.2.6-1.2.5-1.7.3-1.1-.5-2.1-.7-3.1-1.1-1-.4-2.3-.1-3.3-.2-2.7-.1-6-.4-8.5.5-.8.3-1.4.1-2.2.3-.5.1-.9.5-1.5.6-.4,0-1.2,0-1.5.1-.2.1-.4.4-.6.5-.7.3-.8,0-1.5.7-1.1.9-1.8-1.2-1-1.8.2,0,.4-.1.6-.2,1-.5,1.6-.5,2.3-.8.2,0,.3-.4.6-.5.6-.2,1.3,0,2-.2.4-.1.7-.5,1.1-.6.8-.3,1.5,0,2.2-.2.4,0,.7-.5,1.2-.6,1.7-.3,6.2-.2,8,0,.6,0,1,.5,1.6.6.9.2,1.8-.1,2.7.2.4.2.6.5.9.6.4.2,1.2,0,1.5.4h0Z"/>
    <path d="M104.6,123.1c-.3.2-.6.4-.9.7,0,1,.2,2.4,0,3.3-.1.5-1,2.1-1.3,2.6-.2.3-.1.7-.6.8-1.1.2-1.6-.4-1.9-1.3l.9-1.1c.4-.2,1.1,0,1.3-.5,0-1.1.7-1.9-.2-2.8-.6.4-1.2.2-1.8.3-1.2.3-2,.7-3.4.5-.3,0-.5-.3-.8-.3-1.1-.2-2.3-.4-2.3,1,0,.1.3,1.2.3,1.3.6.9,2.2.1,2.4,1.8.2,2-1.5,2.4-2.6.8-.3-.4-.1-.8-.3-1.2,0-.1-.4-.2-.5-.4-.9-1.3-1.1-2.5-.7-4.1-.2-.2-.6-.2-.7-.4-.3-.3-.8-.8-1.1-1.1-.4-.4-2-1.6-.9-2,1-.3,1.4.7,2,1.2,1,.8,1.3.7,2.3,1.1.3.1.6.6,1.1.7.6.1,4.9,0,5.3-.1.2-.1.4-.4.6-.5,1.1-.5,2.4-1,3.3-1.8.3-.3,1-1.4,1.5-1.3,1.3.8-.4,2.2-1.1,2.8h0Z"/>
    <path d="M65.9,89.4c.6-.1,2,0,2.7,0,1.1,0,1.9.6,2.9.7,1.1.1,2.4-.2,3.4.2,1.3.5,1.4.3,2.6.6.5.1.8.5,1.2.6.5.1,1.1,0,1.6.2.3.1.4.4.7.5.6.3,1.2,0,1.4.9.2,1.1-.7,1.6-1.6,1.1-.2-.1-.3-.4-.6-.5-.4-.2-.9,0-1.3-.2-.4,0-.7-.5-1.1-.6-.5-.2-1.1,0-1.6-.2-.5-.2-.7-.5-1.3-.6-.8-.1-1.8,0-2.6,0-1.4,0-3-.6-4.4-.8-1.3,0-2.6,0-3.9,0-1.3-1.3,0-1.2.9-1.6.3-.1.4-.4.9-.5Z"/>
    <g>
      <path d="M160.1,97.8c.5.6,1.5,1.7,2.1,2.2.2.2.5.2.6.4.4.5.2,1.6-.4,1.7-.7,0-2.4-2.3-3-2.9-1.2-1.1-.8.4-1.2,1.1-.3.7-.3.5-.6,1.3-.5,1.5-2.1,1.4-1.8,0,0-.3.4-.5.5-.8.2-.5.4-1.2.7-1.8.1-.3.4-1.8.4-2.1,0-.1-.2-.6-.4-.8-.6-.8-2.3-1.9-2.4-2.9,0-.3.3-.6.6-.7.7,0,2.1,1.7,2.6,2.2,1.2-.5.8-1.3.9-2.3.1-1.1,1.7-1.4,1.8-.2.1.7-.4,1-.6,1.6-.3.9,0,1.8-.8,2.7,0,.4.4.5.6.8.1.1.1.3.2.5h0Z"/>
      <path d="M158.7,106.1c.1.2.5.2.6.5,0,.2,0,1,0,1.2,0,.5-.6.5-.7.7-.1.2,0,.4-.2.6-.3.3-2.3.4-2.7,0-.2-.2-.4-1.1-.4-1.3,0-.2.4-1.5.4-1.6,0,0,.6-.6.6-.6.4-.3,1.3-.3,1.8-.2.4.1.3.4.5.7h0Z"/>
    </g>
    <g>
      <path d="M39,103.9c.8,1,1.4,1.8,2.2,2.9.2.3.6.4.6.9,0,.7-1.1.7-1.6.4,0,0-.8-1-.9-1.1-.4-.5-.7-1.3-1.1-1.8-1.2-.2-.8.2-1.1.9,0,.1-.9,1.7-1,1.8-.2.3-.8.7-1,1-.7-.3-.8-1.1-.6-1.8,0-.4.4-.6.6-.9.5-1,1-2.1,1.6-3.2-.7-.3-.6-.8-.9-1.3s-.9-1.2-1.1-1.6c-.3-.6-.3-1.6.6-1.6,1.3,0,1,1.3,1.9,2l.3,1c0-.7.6-1.1.8-1.6.2-.4,0-.8.3-1.2.3-.6,1.2-1.4,1.7-.6.5.8-.4,1.5-.6,2.2-.1.4-.1.8-.2,1.1-.1.3-.5.5-.6,1-.1.5,0,.9.3,1.4h0Z"/>
      <path d="M37.7,110.6c1.2-.3,2,.1,2.5,1.2.9,1.8-1.9,2.8-2.7,1.4,0-.1-.5-1.6-.6-1.7,0-.4.3-.8.7-.9h0Z"/>
    </g>
  </g>
</svg>